<?xml version="1.0" standalone="no"?>
<!DOCTYPE svg PUBLIC "-//W3C//DTD SVG 20010904//EN"
 "http://www.w3.org/TR/2001/REC-SVG-20010904/DTD/svg10.dtd">
<svg version="1.0" xmlns="http://www.w3.org/2000/svg"
 width="572.000000pt" height="572.000000pt" viewBox="0 0 572.000000 572.000000"
 preserveAspectRatio="xMidYMid meet">
<metadata>
Created by potrace 1.14, written by Peter Selinger 2001-2017
</metadata>
<g transform="translate(0.000000,572.000000) scale(0.100000,-0.100000)"
fill="#000000" stroke="none">
<path d="M1157 4274 c-380 -59 -703 -268 -909 -589 -25 -38 -53 -85 -62 -103
l-17 -33 928 3 928 3 70 23 c39 13 99 41 135 62 69 40 160 121 160 142 0 21
-223 232 -298 281 -278 185 -616 261 -935 211z"/>
<path d="M2700 2965 l0 -1015 1375 0 1375 0 -2 1013 -3 1012 -1372 3 -1373 2
0 -1015z m872 456 c112 -44 175 -150 166 -281 -7 -90 -37 -152 -99 -198 -26
-21 -48 -41 -48 -46 -1 -6 37 -71 83 -145 116 -189 136 -225 136 -244 0 -15
-14 -17 -114 -17 l-114 0 -20 33 c-11 17 -57 100 -103 182 -89 161 -95 186
-67 269 11 31 20 41 52 51 59 21 79 45 83 107 8 104 -48 142 -197 136 l-75 -3
-3 -375 c-2 -338 -4 -376 -19 -387 -25 -19 -158 -17 -177 3 -14 14 -16 70 -16
464 0 406 2 450 17 465 15 15 40 17 237 13 198 -4 227 -7 278 -27z m905 21
c51 -4 96 -11 101 -17 6 -6 6 -38 -2 -85 l-11 -75 -172 0 c-157 0 -174 -2
-199 -21 -40 -29 -48 -46 -40 -88 9 -49 36 -64 186 -105 137 -38 198 -72 245
-139 28 -41 30 -49 30 -140 0 -85 -3 -103 -25 -142 -33 -58 -95 -104 -178
-131 -60 -19 -87 -22 -250 -21 -105 1 -191 6 -202 12 -23 12 -24 37 -7 120
l12 55 170 -4 c240 -5 275 7 275 98 0 56 -26 73 -194 126 -206 65 -255 114
-264 265 -4 63 -1 85 18 128 61 141 200 185 507 164z m598 -477 l0 -470 -100
0 -100 0 -3 459 c-2 337 1 462 9 473 9 10 34 13 103 11 l91 -3 0 -470z"/>
<path d="M69 3258 c-32 -126 -34 -418 -5 -543 10 -44 22 -88 27 -97 9 -17 43
-18 507 -17 273 1 670 4 882 8 l386 6 66 33 c78 38 138 101 177 182 21 46 26
69 26 145 0 80 -3 97 -31 155 -39 82 -101 144 -184 184 l-65 31 -882 3 -881 3
-23 -93z"/>
<path d="M196 2353 c145 -251 344 -441 579 -554 200 -96 359 -132 580 -132
210 0 378 36 564 124 157 73 330 207 442 340 l42 50 -39 40 c-55 56 -151 116
-236 147 l-73 27 -944 3 -943 2 28 -47z"/>
</g>
</svg>
